<?xml version="1.0" encoding="UTF-8"?>
<svg id="_Слой_1" data-name="Слой_1" xmlns="http://www.w3.org/2000/svg" xmlns:xlink="http://www.w3.org/1999/xlink" version="1.1" viewBox="0 0 319.2 208.2">
  <!-- Generator: Adobe Illustrator 29.1.0, SVG Export Plug-In . SVG Version: 2.1.0 Build 142)  -->
  <defs>
    <style>
      .st0 {
        fill: url(#_Безымянный_градиент_3);
      }

      .st1 {
        fill: url(#_Безымянный_градиент_5);
      }

      .st2 {
        fill: url(#_Безымянный_градиент_4);
      }

      .st3 {
        fill: url(#_Безымянный_градиент_9);
      }

      .st4 {
        fill: url(#_Безымянный_градиент_8);
      }

      .st5 {
        fill: url(#_Безымянный_градиент_6);
      }

      .st6 {
        fill: url(#_Безымянный_градиент_7);
      }

      .st7 {
        fill: url(#_Безымянный_градиент_151);
      }

      .st8 {
        fill: url(#_Безымянный_градиент_2);
      }

      .st8, .st9 {
        fill-rule: evenodd;
      }

      .st10 {
        fill: url(#_Безымянный_градиент_20);
      }

      .st11 {
        fill: url(#_Безымянный_градиент_22);
      }

      .st12 {
        fill: url(#_Безымянный_градиент_21);
      }

      .st13 {
        fill: url(#_Безымянный_градиент_11);
      }

      .st14 {
        fill: url(#_Безымянный_градиент_10);
      }

      .st15 {
        fill: url(#_Безымянный_градиент_19);
      }

      .st16 {
        fill: url(#_Безымянный_градиент_14);
      }

      .st17 {
        fill: url(#_Безымянный_градиент_13);
      }

      .st18 {
        fill: url(#_Безымянный_градиент_12);
      }

      .st19 {
        fill: url(#_Безымянный_градиент_16);
      }

      .st20 {
        fill: url(#_Безымянный_градиент_15);
      }

      .st21 {
        fill: url(#_Безымянный_градиент_18);
      }

      .st22 {
        fill: url(#_Безымянный_градиент_17);
      }

      .st9 {
        fill: url(#_Безымянный_градиент);
      }
    </style>
    <linearGradient id="_Безымянный_градиент" data-name="Безымянный градиент" x1="85.9" y1="195.2" x2="90.9" y2="190.2" gradientTransform="translate(-2389.5 5874.7) scale(29.5 -29.5)" gradientUnits="userSpaceOnUse">
      <stop offset="0" stop-color="#8f5e25"/>
      <stop offset=".5" stop-color="#fbf4a1"/>
      <stop offset="1" stop-color="#8f5e25"/>
    </linearGradient>
    <linearGradient id="_Безымянный_градиент_2" data-name="Безымянный градиент 2" x1="86" y1="195.2" x2="91" y2="190.2" gradientTransform="translate(-2447.9 5826.8) scale(29.5 -29.5)" gradientUnits="userSpaceOnUse">
      <stop offset="0" stop-color="#8f5e25"/>
      <stop offset=".5" stop-color="#fbf4a1"/>
      <stop offset="1" stop-color="#8f5e25"/>
    </linearGradient>
    <linearGradient id="_Безымянный_градиент_3" data-name="Безымянный градиент 3" x1="86" y1="195.3" x2="91" y2="190.3" gradientTransform="translate(-2387.9 5767.9) scale(29.5 -29.5)" gradientUnits="userSpaceOnUse">
      <stop offset="0" stop-color="#8f5e25"/>
      <stop offset=".5" stop-color="#fbf4a1"/>
      <stop offset="1" stop-color="#8f5e25"/>
    </linearGradient>
    <linearGradient id="_Безымянный_градиент_4" data-name="Безымянный градиент 4" x1="86" y1="195.3" x2="91" y2="190.3" gradientTransform="translate(-2336.9 5839.4) scale(29.5 -29.5)" gradientUnits="userSpaceOnUse">
      <stop offset="0" stop-color="#8f5e25"/>
      <stop offset=".5" stop-color="#fbf4a1"/>
      <stop offset="1" stop-color="#8f5e25"/>
    </linearGradient>
    <linearGradient id="_Безымянный_градиент_5" data-name="Безымянный градиент 5" x1="86.2" y1="195.4" x2="91.2" y2="190.4" gradientTransform="translate(-2443.9 5768) scale(29.5 -29.5)" gradientUnits="userSpaceOnUse">
      <stop offset="0" stop-color="#8f5e25"/>
      <stop offset=".5" stop-color="#fbf4a1"/>
      <stop offset="1" stop-color="#8f5e25"/>
    </linearGradient>
    <linearGradient id="_Безымянный_градиент_6" data-name="Безымянный градиент 6" x1="-87.5" y1="358.2" x2="275.3" y2="335.4" gradientTransform="translate(65.9 521.9) scale(1 -1)" gradientUnits="userSpaceOnUse">
      <stop offset="0" stop-color="#8f5e25"/>
      <stop offset=".5" stop-color="#fbf4a1"/>
      <stop offset="1" stop-color="#8f5e25"/>
    </linearGradient>
    <linearGradient id="_Безымянный_градиент_7" data-name="Безымянный градиент 7" x1="-87.4" y1="359.5" x2="275.4" y2="336.7" gradientTransform="translate(65.9 521.9) scale(1 -1)" gradientUnits="userSpaceOnUse">
      <stop offset="0" stop-color="#8f5e25"/>
      <stop offset=".5" stop-color="#fbf4a1"/>
      <stop offset="1" stop-color="#8f5e25"/>
    </linearGradient>
    <linearGradient id="_Безымянный_градиент_8" data-name="Безымянный градиент 8" x1="-87.3" y1="360.8" x2="275.5" y2="337.9" gradientTransform="translate(65.9 521.9) scale(1 -1)" gradientUnits="userSpaceOnUse">
      <stop offset="0" stop-color="#8f5e25"/>
      <stop offset=".5" stop-color="#fbf4a1"/>
      <stop offset="1" stop-color="#8f5e25"/>
    </linearGradient>
    <linearGradient id="_Безымянный_градиент_9" data-name="Безымянный градиент 9" x1="-87.2" y1="362" x2="275.5" y2="339.2" gradientTransform="translate(65.9 521.9) scale(1 -1)" gradientUnits="userSpaceOnUse">
      <stop offset="0" stop-color="#8f5e25"/>
      <stop offset=".5" stop-color="#fbf4a1"/>
      <stop offset="1" stop-color="#8f5e25"/>
    </linearGradient>
    <linearGradient id="_Безымянный_градиент_10" data-name="Безымянный градиент 10" x1="-87.2" y1="363.2" x2="275.6" y2="340.3" gradientTransform="translate(65.9 521.9) scale(1 -1)" gradientUnits="userSpaceOnUse">
      <stop offset="0" stop-color="#8f5e25"/>
      <stop offset=".5" stop-color="#fbf4a1"/>
      <stop offset="1" stop-color="#8f5e25"/>
    </linearGradient>
    <linearGradient id="_Безымянный_градиент_11" data-name="Безымянный градиент 11" x1="-87" y1="364.9" x2="275.7" y2="342.1" gradientTransform="translate(65.9 521.9) scale(1 -1)" gradientUnits="userSpaceOnUse">
      <stop offset="0" stop-color="#8f5e25"/>
      <stop offset=".5" stop-color="#fbf4a1"/>
      <stop offset="1" stop-color="#8f5e25"/>
    </linearGradient>
    <linearGradient id="_Безымянный_градиент_12" data-name="Безымянный градиент 12" x1="-87" y1="366.2" x2="275.8" y2="343.4" gradientTransform="translate(65.9 521.9) scale(1 -1)" gradientUnits="userSpaceOnUse">
      <stop offset="0" stop-color="#8f5e25"/>
      <stop offset=".5" stop-color="#fbf4a1"/>
      <stop offset="1" stop-color="#8f5e25"/>
    </linearGradient>
    <linearGradient id="_Безымянный_градиент_13" data-name="Безымянный градиент 13" x1="-86.9" y1="367.3" x2="275.9" y2="344.4" gradientTransform="translate(65.9 521.9) scale(1 -1)" gradientUnits="userSpaceOnUse">
      <stop offset="0" stop-color="#8f5e25"/>
      <stop offset=".5" stop-color="#fbf4a1"/>
      <stop offset="1" stop-color="#8f5e25"/>
    </linearGradient>
    <linearGradient id="_Безымянный_градиент_14" data-name="Безымянный градиент 14" x1="-86.8" y1="368.5" x2="275.9" y2="345.7" gradientTransform="translate(65.9 521.9) scale(1 -1)" gradientUnits="userSpaceOnUse">
      <stop offset="0" stop-color="#8f5e25"/>
      <stop offset=".5" stop-color="#fbf4a1"/>
      <stop offset="1" stop-color="#8f5e25"/>
    </linearGradient>
    <linearGradient id="_Безымянный_градиент_15" data-name="Безымянный градиент 15" x1="-86.7" y1="369.8" x2="276" y2="347" gradientTransform="translate(65.9 521.9) scale(1 -1)" gradientUnits="userSpaceOnUse">
      <stop offset="0" stop-color="#8f5e25"/>
      <stop offset=".5" stop-color="#fbf4a1"/>
      <stop offset="1" stop-color="#8f5e25"/>
    </linearGradient>
    <linearGradient id="_Безымянный_градиент_151" data-name="Безымянный градиент 15" x1="94.5" y1="355.8" x2="94.5" y2="355.8" xlink:href="#_Безымянный_градиент_15"/>
    <linearGradient id="_Безымянный_градиент_16" data-name="Безымянный градиент 16" x1="-86.6" y1="371.6" x2="276.1" y2="348.7" gradientTransform="translate(65.9 521.9) scale(1 -1)" gradientUnits="userSpaceOnUse">
      <stop offset="0" stop-color="#8f5e25"/>
      <stop offset=".5" stop-color="#fbf4a1"/>
      <stop offset="1" stop-color="#8f5e25"/>
    </linearGradient>
    <linearGradient id="_Безымянный_градиент_17" data-name="Безымянный градиент 17" x1="-86.5" y1="372.9" x2="276.2" y2="350" gradientTransform="translate(65.9 521.9) scale(1 -1)" gradientUnits="userSpaceOnUse">
      <stop offset="0" stop-color="#8f5e25"/>
      <stop offset=".5" stop-color="#fbf4a1"/>
      <stop offset="1" stop-color="#8f5e25"/>
    </linearGradient>
    <linearGradient id="_Безымянный_градиент_18" data-name="Безымянный градиент 18" x1="-86.5" y1="373.9" x2="276.3" y2="351.1" gradientTransform="translate(65.9 521.9) scale(1 -1)" gradientUnits="userSpaceOnUse">
      <stop offset="0" stop-color="#8f5e25"/>
      <stop offset=".5" stop-color="#fbf4a1"/>
      <stop offset="1" stop-color="#8f5e25"/>
    </linearGradient>
    <linearGradient id="_Безымянный_градиент_19" data-name="Безымянный градиент 19" x1="-86.4" y1="375.1" x2="276.4" y2="352.2" gradientTransform="translate(65.9 521.9) scale(1 -1)" gradientUnits="userSpaceOnUse">
      <stop offset="0" stop-color="#8f5e25"/>
      <stop offset=".5" stop-color="#fbf4a1"/>
      <stop offset="1" stop-color="#8f5e25"/>
    </linearGradient>
    <linearGradient id="_Безымянный_градиент_20" data-name="Безымянный градиент 20" x1="-86.3" y1="376" x2="276.4" y2="353.2" gradientTransform="translate(65.9 521.9) scale(1 -1)" gradientUnits="userSpaceOnUse">
      <stop offset="0" stop-color="#8f5e25"/>
      <stop offset=".5" stop-color="#fbf4a1"/>
      <stop offset="1" stop-color="#8f5e25"/>
    </linearGradient>
    <linearGradient id="_Безымянный_градиент_21" data-name="Безымянный градиент 21" x1="-86.3" y1="377" x2="276.5" y2="354.1" gradientTransform="translate(65.9 521.9) scale(1 -1)" gradientUnits="userSpaceOnUse">
      <stop offset="0" stop-color="#8f5e25"/>
      <stop offset=".5" stop-color="#fbf4a1"/>
      <stop offset="1" stop-color="#8f5e25"/>
    </linearGradient>
    <linearGradient id="_Безымянный_градиент_22" data-name="Безымянный градиент 22" x1="-193.7" y1="3.1" x2="-108.5" y2="1.1" gradientTransform="translate(249 193.5) scale(.6 1)" gradientUnits="userSpaceOnUse">
      <stop offset="0" stop-color="#8f5e25"/>
      <stop offset=".5" stop-color="#fbf4a1"/>
      <stop offset="1" stop-color="#8f5e25"/>
    </linearGradient>
  </defs>
  <g>
    <path class="st9" d="M149.3,113.5c.3.4.4.5.4.6.1,3.8.3,7.6.4,11.3,0,.3-.1.6-.3.9-.6-.2-.7-.8-.7-1.3,0-3.4-.1-6.8-.2-10.2,0-.5.1-.9.3-1.4Z"/>
    <path class="st8" d="M92.8,65.6c-.6,2-.8,4-.6,6.1,0,.7-.4,1.4-1,1.9-.7-1.5-.8-3.3-.4-4.9,0-1.3.8-2.4,1.9-3Z"/>
    <polygon class="st0" points="150.5 6.7 150.6 6.7 150.6 6.7 150.5 6.7"/>
    <polygon class="st2" points="201.6 78.3 201.6 78.2 201.6 78.3 201.6 78.3"/>
    <path class="st1" d="M229.6,63.4c0-.7.2-1.4-.4-1.9-1.1,1.1,0,2.8-.8,3.9-.8.2-.9-.5-.9-1.2,0-1,0-2,0-3.1,0-.4-.1-.8-.2-1.2h-.4c-.1.5-.2.9-.2,1.4,0,.9,0,1.8,0,2.6,0,1-.4,1.2-1.4,1.1,0-1,0-2-.1-3-.1-1,.1-2-.5-2.9-.2.4-.3.9-.3,1.3,0,1,0,2-.1,3.1,0,.6-.1,1.3-.7,1.5-.6,0-.7-.6-.7-1.1,0-1.2-.1-2.3-.1-3.5,0-.7,0-1.4.3-2.1.2-.7.1-1.1-.6-1.5-.2.4-.4.8-.6,1.3-.1.5-.1,1.1-.1,1.6,0,1.4,0,2.7,0,4.1,0,1.1-.3,1.5-1.2,1.5-.2,0-.4,0-.7-.2-.5-2.7-.6-5.5-.2-8.2v-.3c.4-.6.3-1.2-.2-1.7-.8,0-.9.7-.9,1.3,0,1.8,0,3.7,0,5.5,0,.7,0,1.5,0,2.2,0,.6-.1,1.2-.9,1.3-.1-.4-.2-.8-.3-1.2,0-1.6-.1-3.2-.1-4.8,0-1.8,0-3.6.1-5.4,0-.9-.1-1.8-.5-2.7-.6.3-.5.9-.5,1.4,0,1.8,0,3.6,0,5.4,0,2,0,3.9,0,5.8,0,.3-.1.6-.2,1h-.3c0-.5-.1-.9-.1-1.4,0-1.8,0-3.6,0-5.4,0-2.1-.1-4.3,0-6.4,0-1.4,0-2.9-.1-4.3-.1-1.4-1.3-2.3-1.3-3.8l-.4-.4c-.1.5-.2.9-.3,1.4,0,2.2,0,4.4,0,6.6,0,4,0,8,0,12,0,.7-.1,1.5-.2,2.4l-1.7-.3c0-2.5,0-4.8,0-7.2,0-2.4,0-4.8,0-7.2,0-2.4,0-4.8-.2-7.2-.5.5-.7,1.2-.6,1.9,0,2.3,0,4.6,0,6.9,0,3.6,0,7.1,0,10.7,0,.5,0,1.1,0,1.6,0,.3-.3.5-.5.8h-.3c-.1-.5-.2-1-.3-1.4,0-1,0-2,0-3.1,0-2.7,0-5.4,0-8.2,0-.3-.1-.6-.2-.9h-.4c-.5,4.4,0,8.8-.4,13.1h-.4s-.3-3.2-.3-3.2c-1.1.9-.4,2.3-1,3.2l-.8-1.3-.6,1.6c-.9-.8,0-2.3-1-3-.8.9-.1,2.1-.6,3.2h-.8c-.8-1.7,0-3.7-.7-5.4-.5,1.8-1.2,3.6-2.2,5.2v-3.5c0-.7-.3-1.2-1-1.2-.2,0-.5,0-.7-.1-.2-.9.2-2-.8-2.4-.5.5-.8,1.2-.7,1.9,0,1.3,0,2.5,0,3.8,0,.6,0,1.2-.6,1.4-.6-.3-.6-1-.5-1.6,0-1.5,0-3,.1-4.5,0-.9,0-1.9-.4-2.8-.8.2-.6.9-.6,1.4,0,2,0,4,0,6,0,.7.2,1.6-.7,1.9-.6-.3-.5-1-.5-1.5,0-2.5.1-5,.2-7.4,0-.6,0-1.1-.7-1.1-.3.5-.5,1.2-.4,1.8,0,2.4,0,4.9,0,7.3,0,.4-.1.7-.2,1.1h-1.3c0-.3-.2-.6-.2-.8,0-2.6,0-5.2,0-7.7,0-2.1.2-4.2.3-6.3,0-.5-.1-1.1-.3-1.6-.8.3-.7.9-.7,1.5,0,2.5,0,5,0,7.6,0,1.7,0,3.4,0,5.1,0,.5,0,1,0,1.4-.1.4-.4.7-.7.8-.4.1-.6-.4-.6-.8,0-.4,0-.8,0-1.2,0-2,0-4,0-6,0-5.8,0-11.7,0-17.5,0-2.7,0-5.5,0-8.2s0-1.1-.7-1.3c-.1.4-.2.8-.2,1.2,0,3.7,0,7.3,0,11s0,6.8,0,10.2c0,2.5,0,5-.2,7.4,0,1.2,0,2.5.2,3.7,0,1.4-.4,1.7-1.5,1.1,0-.4,0-.7-.1-1.1,0-1.1,0-2.2,0-3.3,0-2.2-.1-4.5-.1-6.7,0-2.4,0-4.8,0-7.2,0-4.1,0-8.2,0-12.3-.1-1.2,0-2.4.5-3.6,0-.2.1-.5,0-.7-.2-1.9-.4-3.7-.6-5.6,0-.2-.2-.4-.5-.8-.1.5-.2.9-.3,1.4,0,.7,0,1.5,0,2.2,0,4.7,0,9.5,0,14.2,0,4.3,0,8.7-.1,13,0,3.1,0,6.2,0,9.3,0,.2,0,.5,0,.7-.1.6-.4.9-1,.9-.5,0-.6-.5-.7-1v-1.3c0-5.8,0-11.7,0-17.5,0-5.3,0-10.6,0-15.9,0-2.3,0-4.6,0-6.9,0-.3-.1-.6-.2-.8h-.3c0,1.3-.2,2.5-.2,3.8,0,3.6,0,7.2,0,10.8s0,8.3,0,12.4c0,3,0,6,0,9.1,0,2,0,3.9,0,5.8,0,.5.2,1.2-.6,1.6,0-.6-.2-1.2-.2-1.9,0-5.4,0-10.8,0-16.2,0-6.2,0-12.4-.1-18.6,0-.5,0-1-.2-1.7-.5.5-.7,1.2-.6,1.9,0,2.1,0,4.3,0,6.4,0,5.2,0,10.4,0,15.6s0,4.6,0,6.8c0,2.1,0,4.3,0,6.4,0,.4,0,.8-.2,1.2h-1.7c0-.4-.1-.8-.1-1.2,0-2.5,0-5,0-7.5,0-2.8,0-5.6,0-8.5,0-4.2,0-8.5,0-12.7s0-3.2,0-4.8c0-.6,0-1.1-.8-1.2,0,.4-.2.8-.2,1.2,0,.6,0,1.2,0,1.8,0,4.8,0,9.6,0,14.5,0,4.8,0,9.6,0,14.5,0,1,0,2.1,0,3.1,0,.8-.4,1.1-1.2.7,0-1.3-.1-2.6-.1-3.9,0-6.8,0-13.6,0-20.3,0-1.3.1-2.6.2-3.9,0-.7,0-1.5-.8-2-.1.5-.2,1-.3,1.6,0,6.5,0,13.1,0,19.6,0,2.6,0,5.2,0,7.7,0,.6,0,1.2-.6,1.4-.7-.5-.6-1.3-.6-2.1,0-6.8,0-13.5,0-20.3,0-.5,0-1.1-.1-1.6h-.3c-.2.3-.3.7-.4,1.1,0,1.9,0,3.8,0,5.7,0,5.3.1,10.6.2,15.9,0,1.6-.6,1.9-1.8,1,0-1.8-.2-3.6-.6-5.4-.2.3-.3.7-.4,1,0,.9,0,1.8,0,2.6,0,.7.2,1.5-.5,2-.9-1.3,0-3-.9-4.5-.2.5-.3,1.1-.4,1.6,0,.7,0,1.4,0,2,0,.4-.2.7-.4,1-.8-.3-.7-1-.7-1.5,0-4.4-.2-8.8-.3-13.1,0-.6,0-1.3-.4-1.8-.2.4-.3.9-.3,1.4,0,2.8,0,5.5,0,8.3,0,1.9-.2,3.9-.3,5.8,0,.3-.3.7-.5,1h-.3c-.1-.5-.2-.9-.3-1.3,0-.5,0-1-.2-1.4,0-.8-.3-1.5-.3-2.3,0-1.9,0-3.8-.1-5.7,0-.6,0-1.2-.7-1.4-.4.6-.5,1.4-.4,2.1,0,.9,0,1.8.1,2.8,0,1.1-.3,2.2-1.1,3-.3-7.6-.1-15.2-.9-22.7-.4,3.4-.5,6.8-.4,10.2l-1.3.4c0,.5-.1.9-.1,1.4,0,2.3,0,4.6.1,6.9,0,2.2.1,4.5.1,6.7,0,.5.1,1.2-.7,1.4-.1-.5-.2-1-.2-1.5,0-5.2,0-10.4,0-15.6,0-.8.2-1.6.2-2.5-.1-2.6-.3-5.2-.5-7.9-.1-2.9-.2-5.7-.3-8.6,0-.4-.1-.8-.2-1.2-.5.6-.8,1.3-.7,2.1,0,3.5.1,6.9.2,10.4,0,.7,0,1.4,0,2,.1,2.2.4,4.5.5,6.7,0,4.6,0,9.2,0,13.7,0,.5,0,1.1,0,1.6,0,.6-.3,1-1,.8,0-.4-.1-.7-.1-1.1,0-5.4,0-10.7,0-16.1,0-2.1,0-4.3.1-6.4,0-.6,0-1.4-.8-1.8,0,.7-.2,1.3-.2,1.9,0,3.3,0,6.5,0,9.8,0,4.1,0,8.2,0,12.3,0,1.6-.4,1.8-1.8,1.3,0-.5-.1-1-.2-1.5,0-2.1,0-4.2,0-6.3,0-4.3,0-8.7,0-13,0-.8.2-1.7.4-2.5-.2-7,.3-14.1-.6-21.2-.3,1.5-.5,3-.4,4.6.3,2.5.1,5.1-.4,7.6-.1.6-.1,1.2,0,1.7,0,.4,0,.8,0,1.2,0,2.5,0,5,0,7.4,0,3.8.1,7.7.2,11.5,0,2.5,0,5,0,7.4,0,.7,0,1.4,0,2,0,.9-.3,1.1-1.3.9,0-.3-.2-.6-.2-.9,0-1.4,0-2.7,0-4.1,0-6.1,0-12.2,0-18.3,0-2.4.1-4.9.1-7.3,0-1.2,0-2.3-.4-3.4-.4-1-.6-2-.6-3.1,0-1.4,0-2.7,0-4.1,0-4.9-.1-9.7-.2-14.6,0-.4,0-.8-.2-1.1h-.3c0,.5-.1.9-.1,1.3,0,3.2,0,6.4,0,9.6,0,1.4,0,2.7,0,4.1,0,1.6,0,3.2,0,4.8,0,2.4,0,4.8,0,7.3,0,.3,0,.6.2.8.5,1.1.7,2.3.6,3.5,0,3.9,0,7.9,0,11.8,0,3.9,0,7.7,0,11.5,0,.5,0,1,0,1.4,0,.3-.4.8-.7.8s-.7-.4-.8-.7c-.1-.5-.2-1.1-.2-1.6,0-2.1,0-4.3,0-6.4,0-2.7,0-5.5,0-8.2,0-2.9,0-5.7,0-8.6,0-2.5,0-4.9,0-7.4,0-1.9,0-3.8,0-5.7,0-1.2.1-2.4-1.1-2.9,0-1.8,0-3.5.1-5.2.2-4.1.5-8.3.8-12.4,0-.3,0-.5-.1-.8-.2.6-.4,1.2-.5,1.8-.3,2.9-.5,5.7-.7,8.6-.3,4-.5,8-.7,11.9,0,1.1,0,2.3.2,3.5h1.1c0,1.7,0,3.2.1,4.7,0,2.6,0,5.3,0,7.9,0,3.5.1,6.9.2,10.4,0,1.8,0,3.6,0,5.4,0,1.3,0,2.6,0,3.9,0,1.4-.5,1.8-1.9,1.4-.1-.6-.2-1.2-.2-1.9,0-2.6,0-5.2,0-7.7,0-3.4,0-6.7,0-10.1,0-3.7,0-7.3,0-11,0-2.2,0-4.4,0-6.6,0-.6,0-1.2-.8-1.4,0,.7-.1,1.3-.1,1.9,0,4.4,0,8.9,0,13.3,0,3.7.2,7.4.3,11.1,0,1.6.1,3.1.1,4.7,0,2.2,0,4.4,0,6.6,0,.7-.1,1.4-.8,1.4-.9.2-1.9.1-2.7-.3-.1-.5-.2-1.1-.2-1.6,0-3.6,0-7.1,0-10.7,0-2.4,0-4.8,0-7.2s0-4.7,0-7c0-1.1-.2-2.2-.3-3.3,0-.2-.2-.3-.3-.5l-.3.2c-.2,1.8-.3,3.7-.3,5.5.2,2.6.2,5.1,0,7.7,0,1.1.2,2.1.2,3.2,0,3.7.1,7.4.2,11.1,0,.7,0,1.4,0,2-.1.7-.5.9-1.1.4,0-.4-.1-.8-.1-1.3,0-3.8,0-7.7,0-11.5,0-1.8,0-3.7,0-5.5,0-.5,0-1.1-.6-1.3,0,.2-.2.4-.2.6,0,2-.2,4-.2,6,0,3.8.1,7.7.2,11.5,0,.3,0,.7-.1,1,0,.5-.5.9-1,.8-.5,0-.6-.5-.6-1.1,0-1.6,0-3.3,0-5,0-1.9,0-3.8,0-5.7,0-.5,0-1.1-.8-1.3-.2.5-.3,1.1-.3,1.6,0,3.3.1,6.7.2,10,0,.6.1,1.2-.4,1.5-.6,0-.8-.5-.8-1.1s0-1.6.1-2.3c0-.7.2-1.5-.5-2.1-.5,1.6-.7,3.4-.5,5-1.1.9-1.5.8-1.8-.8,0-.4-.2-.8-.4-1.5-.2.2-.4.5-.5.8,0,.4-.1.8-.2,1.1-.1.3-.4.8-.7.9-.5.1-.7-.4-.7-.9,0-.5,0-1,0-1.5,0-.5-.2-1-.3-1.4-.7,0-.7.4-.7.9,0,.6,0,1.3,0,1.9,0,1-.2,1.1-1.4,1.1l-.2-2.8h-.3c0,0-1.1,1.9-1.1,1.9-.4-.4-.8-.9-1.1-1.4-.2-.6-.4-1.2-.5-1.8-1.2,1.2-.1,3.1-1.4,4.1l-.8-.7.5-1.5-1.1-2.4c-1,1.5.3,3.4-1.1,4.6-.8-1.1-.1-2.6-1-3.6-.7,1-.1,2.5-.8,3.5h-.3s-.1-1.7-.1-1.7c-.9-.3-1.7-.6-2.5-.9-.9-.4-1-.7-1-1.9,0-1.1,0-2.1-.1-3.2,0-.3-.2-.5-.3-.8h-.3c0,.5-.1.9-.1,1.4,0,1.6,0,3.2,0,4.8,0,.6,0,1.2,0,1.8,0,.5-.2,1-.7,1-.5,0-.6-.6-.7-1.1v-.3c0-3.4,0-6.8,0-10.2,0-.9-.2-1.9-.7-2.7-.1.5-.2,1.1-.3,1.6,0,1.6,0,3.2,0,4.8,0,2.1,0,4.2,0,6.3,0,.4,0,.9-.5,1.1,0-.3-.1-.7-.1-1-.1-5.1-.2-10.2-.4-15.3.1-.9,0-1.9-.5-2.7-.4,2-.4,4.1-.2,6.1,0,2,.1,4.1.1,6.1,0,2,0,4.1-.1,6.1-.2-.2-.4-.5-.4-.9,0-1.1,0-2.1,0-3.2,0-3.1-.2-6.1-.3-9.2,0-1.6,0-3.2-.2-4.8,0-.3-.1-.6-.2-1h-.3c0,.7-.1,1.4-.2,2.1,0,4.3.2,8.6.3,12.8,0,1.1,0,2.1,0,3.2,0,.9-.3,1.4-.8,1.3-.7,0-.8-.6-.8-1.2,0-1.1,0-2.1,0-3.2,0-2.9-.2-5.8-.3-8.8,0-2.1,0-4.2-.1-6.3,0-.5,0-1.1-.7-1.4,0,1.3,0,2.4,0,3.5,0,4.1.1,8.2.2,12.3,0,1.4,0,2.7,0,4.1,0,.9-.3,1.3-1,1.4-.6,0-1-.4-1-1.3,0-2.5-.1-5.1-.2-7.6,0-2.9-.1-5.7-.2-8.6,0-.3-.2-.7-.3-1h-.3c-.1.5-.2,1-.2,1.5,0,2.6.1,5.3.2,7.9,0,2.4.2,4.8.2,7.2,0,.6.1,1.4-.5,1.8-.7-.7-.6-1.6-.6-2.4-.1-1.8-.2-3.6-.3-5.4,0-.3-.1-.6-.2-.8h-.3c0,.5,0,.9,0,1.4,0,2,0,4.1.1,6.1,0,1-.1,1.2-1.1,1.2l-.6-1.6c-.6.8-.7,2.5-2.1,1.6l-.2-1.3-1.5,1.7c-1-.7-.2-1.9-.8-3-.3.5-.5,1.1-.6,1.7-.1.9-.6,1.6-1.4,2.1l-.7.4c-.2,1.7,0,3.5.4,5.2.7-1.5,1.3-2.7,1.9-3.9.2-.5.4-1,1-.9.5.1.5.7.5,1.2,0,.7.2,1.3.6,1.8,0-.8,0-1.4.1-1.9,0-.9.4-1.3,1.1-1.3.6,0,.8.5.8,1.5,0,1.4,0,2.7,0,4.1,0,.5,0,1,.2,1.4h.4s.1-1.4.1-1.4c.1-1.6.2-3.1.3-4.7,0-.6.3-1.1.8-1.1.6,0,.8.5.8,1,0,.5.1,1.1.1,1.6,0,1.9.2,3.9.3,5.8,0,.4.1.7.2,1.1.6-.3.5-.9.5-1.3,0-2.1-.1-4.3-.2-6.4,0-.6-.2-1.3.4-1.7.7.4.7,1,.7,1.7.1,3.3.2,6.5.3,9.8,0,.6.1,1.2.2,1.7h.4c.2-4.4-.4-8.9,0-13.2,1.3-.4,1.7-.2,1.8,1.1,0,.4,0,.8,0,1.2l.2,11.7c-.1.7,0,1.4.5,2,.1-.4.2-.9.2-1.4,0-4.3,0-8.6-.1-12.8,0-.4,0-.9,0-1.3,0-.3.4-.7.7-.7.2,0,.6.3.8.5.1.3.2.5.2.8,0,1.4.1,2.7.1,4.1,0,5.1.2,10.2.3,15.3,0,.3.1.7.2,1h.3c.1-.6.2-1.2.2-1.8,0-3.6,0-7.1,0-10.7v-.6c0-2.3,0-4.7-.1-7,0-.3.1-.6.2-.8.2.2.3.4.3.6,0,4.7.2,9.5.2,14.2,0,1.1,0,2.1,0,3.2,0,.4,0,.9.6,1,0-.4.1-.8.1-1.3,0-5.2,0-10.3,0-15.5-.1-.9,0-1.7.4-2.5.4,1,.6,2.2.4,3.3,0,1.1,0,2.2,0,3.3s0,2.2,0,3.3c-.1,1.2,0,2.3.3,3.5.4-.9.5-1.8.5-2.8,0-3.2,0-6.4,0-9.6,0-.8.2-1.3,1.1-1.3.1.3.2.7.3,1,0,1.4.1,2.8.1,4.2,0,2.2,0,4.5,0,6.7,0,.5,0,1.1.6,1.5,0-.7.1-1.2.1-1.7,0-2.1,0-4.3,0-6.4,0-1.6.3-3.2.5-4.8,0-.3.2-.5.4-.8l1,.4c.2,1.8-.7,3.6.1,5.3.2-.5.4-1,.4-1.6.1-1,.2-1.9.4-2.9.1-.8.5-1.3,1.3-1,.4.7.5,1.6.3,2.4-.2,1,0,2,.6,2.8.5-1.5-.1-3.2.8-4.6,1.2.7.3,2.3,1.1,3.1.6-1.1.9-2.3.7-3.6.7-.2,1.1.2,1.2.9,0,.4,0,.9,0,1.3,0,1,.2,2,.6,2.8.2-.8.3-1.6.4-2.4,0-.7-.3-1.6.5-2.4.3.8.4,1.7.2,2.5-.2,1,0,2,.7,2.8.1-.4.3-.8.3-1.2.1-1.1.3-2.3.4-3.5.1-.9.4-1.2,1.1-1.2.7,0,1,.4,1,1.3,0,.3,0,.6,0,.9-.1,1.3,0,2.6.6,3.8.9-1.8-.3-3.9.7-5.6.9.3,1,.3,1.1,1.1.1,1.1.1,2.1.2,3.2-.1.8.2,1.6.8,2.2.3-2.3.4-4.6.3-6.9h1.6c0,2.9,0,5.5,0,8.2,0,1,.2,2,.8,2.8.1-.5.2-1,.3-1.5,0-2.4,0-4.9,0-7.3,0-.5,0-1,0-1.5,0-.3.2-.6.3-1,1,0,.9.9.9,1.6-.2,2.5-.2,4.9,0,7.4,0,.1,0,.3,0,.4,0,1.7,0,3.5,0,5.2,0,.4,0,.9,0,1.3,0,.3.2.6.4.9h.3c.1-.4.2-.8.2-1.2,0-2.4,0-4.9,0-7.3s0-.7,0-1c0-1.9-.1-3.8-.1-5.7,0-.5.1-1,.2-1.5,1.2-.4,1.5-.1,1.6,1.1,0,1,0,2,0,3,0,1.1.1,2.1,0,3.2-.2,1-.3,2-.3,3,.1,1.2.2,2.5.2,3.7,0,3.6.2,7.2.4,10.8,0,.3.1.6.2.9.3-.2.4-.5.4-.9,0-3.6,0-7.3,0-10.9,0-1.5-.2-2.9-.2-4.4,0-2.9,0-5.8,0-8.8,0-.3,0-.6.1-1,.9,0,1,0,1,.9,0,1.2,0,2.3,0,3.5,0,.9,0,1.8,0,2.6.3,2.2.3,4.3,0,6.5,0,.2,0,.4,0,.6.1,1.8.3,3.7.3,5.5,0,2.4,0,4.7,0,7.1,0,.3,0,.6,0,.9,0,.2.3.4.5.7.1-.3.2-.6.2-.8,0-1.8,0-3.6,0-5.4,0-.7,0-1.4,0-2.2,0-.7.2-1.4.1-2,0-1.6-.2-3.3-.2-5,0-3.8-.1-7.7-.2-11.5,0-.5.1-1,.2-1.5.9,0,1.8-.1,2.6-.1s.9.4.9,1.1c0,.2,0,.5,0,.7,0,5,.1,10,.2,15,0,.7,0,1.4-.2,2-.4,1.4-.4,2.8,0,4.2.1.4.2.9.2,1.3,0,4.6.1,9.3.2,13.9,0,1.4,0,2.7,0,4.1,0,1.3.5,1.6,1.3,1-.2-.7-.4-1.4-.5-2.1-.1-2.2-.1-4.4-.2-6.6-.1-5,.3-9.9,0-14.9-.2-4.5-.2-9-.2-13.4,0-2,0-4.1.1-6.1,1.4-.7,2-.3,2.1,1.3,0,.2,0,.4,0,.6,0,4,0,8.1,0,12.1.2,2.7.2,5.4,0,8-.1,2.8-.1,5.5,0,8.3,0,3.2,0,6.4,0,9.6,0,2.2-.1,4.5-.2,6.7,0,.3,0,.7.1,1,0,.2.3.4.6.7,0-.4.2-.8.2-1.2,0-2.9,0-5.8,0-8.8,0-1.8-.1-3.6,0-5.4,0-2.8.2-5.5.2-8.3,0-.8-.1-1.6-.1-2.3,0-6.3-.2-12.6-.2-18.8,0-1.3.1-2.6.2-3.8,1.3,0,1.5.2,1.5,1.5,0,1.9,0,3.8,0,5.7,0,4.7,0,9.5.1,14.2,0,3-.4,5.9-.2,8.9.2,3.1,0,6.2,0,9.3,0,1.4,0,2.8,0,4.2,0,.6.1,1,.8.8,0-.4.1-.7.1-1.1,0-5.1,0-10.2,0-15.3,0-2.2,0-4.4-.1-6.6,0-.8,0-1.6,0-2.3,0-5.8,0-11.6,0-17.4,0-.6,0-1.2.1-1.8,1.1-.2,1.2-.1,1.3.9,0,1.6.1,3.2.1,4.8,0,2.2,0,4.4,0,6.6,0,4.8,0,9.5.1,14.3,0,2.6-.4,5.2-.1,7.9,0,2.2,0,4.4,0,6.5-.1.7.2,1.3.8,1.6,0-.7.2-1.2.2-1.8,0-1.5,0-3,0-4.5,0-1,.1-1.9.1-2.9,0-1.7-.2-3.5-.2-5.2,0-5.6,0-11.2,0-16.8,0-3.4,0-6.8,0-10.2,0-.5.1-1,.2-1.4,1.4-.3,1.6-.1,1.7,1.3v.6c0,4.4,0,8.9,0,13.3,0,3.4,0,6.8,0,10.2,0,1.9,0,3.7,0,5.6,0,.8-.2,1.5-.2,2.3,0,.6,0,1.1.9.9,0-.8.1-1.6.1-2.4,0-2.9,0-5.7,0-8.6,0-5.7,0-11.5,0-17.3,0-1.6,0-3.2,0-4.8,0-.5,0-1.1.6-1.2.6.5.6,1.4.6,2.2,0,3.2,0,6.3,0,9.5,0,5.9,0,11.9,0,17.8.1,1.6.1,3.2,0,4.8-.3,2,.1,4,0,6,0,.4,0,.9.5,1.1,0-1.6,0-3,0-4.4,0-5.2,0-10.3,0-15.5,0-4.2,0-8.5,0-12.7,0-2.4,0-4.9,0-7.3,0-.5,0-1.2.8-1.4,0,.6.2,1.1.2,1.6,0,5.1.2,10.2.3,15.3,0,.6.2,1.1.3,1.7,1-.9.2-2.2,1-3.1.1.3.2.6.3.9,0,3.1,0,6.2-.1,9.3,0,.8,0,1.6.1,2.4,0,.3.3.5.7,1.1.1-.5.2-1.1.3-1.6,0-4.3,0-8.7,0-13,0-1.5,0-3,.3-4.5.2-1.4.4-2.9.7-4.3.3,2,.6,4,.7,6.1.1,1.4.2,2.9.2,4.4,0,1.3,0,2.5,0,3.8,0,1,.2,1,1.1,1,0-.4,0-.8,0-1.3,0-1-.3-1.9-.3-2.9,0-3,0-5.9-.5-8.8-.3-2.2-.3-4.4-.1-6.7,0-.5.2-1,.3-1.5h.4c0,.5,0,.9,0,1.3,0,1.6-.1,3.1-.2,4.7,0,.5.1,1.1.3,1.6l.7-1.1v.8c.2,2.2.3,4.5.4,6.7,0,.6,0,1.4.7,1.6.5-.5.3-1.2.3-1.8-.2-3.8-.4-7.6-.6-11.4-.1-.9,0-1.7.4-2.5.8,0,.9.6.9,1.3,0,1.4,0,2.7.1,4.1,0,.5.1,1,.2,1.5h.3c0-1.2,0-2.3.1-3.4,0-1.2,0-2.3.3-3.4.7.5.6,1.2.6,1.8,0,2.5.1,5,.2,7.4,0,.4,0,.9.5,1.1.3-3.5,0-7,.3-10.3,1.4-.5,1.8-.2,1.9,1.3,0,2.6,0,5.2,0,7.7-.1.9,0,1.8.5,2.5.1-.8.2-1.6.3-2.4,0-2.1-.2-4.2-.1-6.3-.1-1,0-2.1.4-3.1.9,0,.9.8.9,1.4,0,2.3,0,4.7-.2,7,0,.7,0,1.3.8,1.4.2-1.3.3-2.6.2-3.9,0-1.6,0-3.2,0-4.8,0-.4.1-.8.2-1.2.8-.1,1.1.1,1.2,1,0,.3,0,.7,0,1-.1,3-.3,5.9-.4,8.9,0,.8.2,1.2,1.1,1.2,0-.6.2-1.2.2-1.8,0-2.9,0-5.7,0-8.6s0-1,.2-1.6h1.8c0,1.6,0,3.1,0,4.5,0,.4,0,.9,0,1.3,0,2.4,0,4.8.2,7.3-.1.8,0,1.5.5,2.2.1-2.2.3-4.1.4-6,0-1.3,0-2.6,0-3.9,0-.4.2-.8.4-1.1.1.2.2.4.2.7,0,2.7,0,5.3,0,8,0,.6-.1,1.3.7,1.6,0-1.9.1-3.6.2-5.3,0-2.5,0-5.1,0-7.6,0-.3,0-.6.1-.8.2-.3.5-.6.7-.6s.5.3.7.6c0,.2.1.5,0,.7,0,2.8,0,5.5,0,8.3,0,1.4,0,2.8,0,4.2,0,.6,0,1.1.8,1.1,0-.3.1-.7.2-1,0-3.4,0-6.7,0-10.1,0-1.3,0-2.7.3-4l1.3-.2c.2,3.1,0,6,0,9-.1,2.9,0,5.8.5,8.7.3-2.9.4-5.8.4-8.6-.1-2.9-.1-5.9,0-8.8,1.1-.1,1.2,0,1.3,1,0,1.7,0,3.4,0,5.1,0,.6,0,1.2,0,1.7-.2,1.6-.1,3.2.4,4.7,0-.3.1-.7.1-1,0-3.2.1-6.4.2-9.7,0-.5,0-1,0-1.4,0-.3.4-.9.6-.8.3,0,.7.4.9.7.1.2.1.6.1.8,0,1.7,0,3.4,0,5.1,0,.7-.1,1.5,0,2.2,0,.9.2,1.8.6,2.5.3-1.3.4-2.6.4-4-.1-2.3,0-4.6.2-6.8,0-.1.1-.2.2-.4.7-.2.8.4.8,1,0,2.1-.1,4.2-.2,6.3,0,1.2.1,2.3.6,3.3.3-1.1.4-2.3.4-3.5,0-1.9,0-3.9,0-5.8,0-.5,0-.9.2-1.4.9,0,.9.7.9,1.3,0,1.8,0,3.5,0,5.3,0,.6,0,1,.8,1.1,0-.6.1-1.1.1-1.7,0-1.6,0-3.2,0-4.8,0-.4.2-.7.3-1.1h.3c.1.3.3.6.3.9,0,1.5,0,3,0,4.5-.1,1.1,0,2.2.5,3.2h.8c0,0-.1.2-.1.2l1.6,2c0-.3-.1-.7-.2-1-.5-1.9-.6-3.8-.5-5.8,0-.3.1-.6.3-.8h.3c.1.5.2,1,.3,1.4,0,.7,0,1.5,0,2.2,0,.7.3,1.3.9,1.7,0-1.4,0-2.7,0-4.1,0-1.1,0-2.1,0-3.2,0-.6,0-1.3.6-1.4.7,0,.8.6.8,1.3v.7c0,1.5,0,3.1.1,4.7,0,.4,0,1,.5,1.2.5-2.6.2-5.3.7-7.8.2.6.2,1.2.2,1.8,0,2.1,0,4.2,0,6.3,0,.5,0,1.2.6,1.4,0-1.8.2-3.6.5-5.4.1,1.6.3,3.2.6,4.8.8-1.7.2-3.7.8-5.4.2.3.2.6.2.9,0,1.2,0,2.3,0,3.5,0,.4.2.8.4,1.2.1-.3.2-.6.3-.9,0-2.2,0-4.4.1-6.6,0-.6-.1-1.3.4-1.7.6.6.6.6.6,1.3,0,1,0,1.9,0,2.9,0,3.7.1,7.3.2,11,0,.5,0,1,.2,1.5h.2s0-.5,0-.5c0-2,0-3.9,0-5.8,0-3.1,0-6.1,0-9.2,0-1.4.5-1.7,1.9-1,.3,10-.1,20.2.7,30.3.2-2.2.3-4.4.2-6.6,0-2.2,0-4.5,0-6.7,0-2.2,0-4.5,0-6.7-.2-2.2,0-4.4.2-6.5.5,6.9,0,13.9.9,20.8.1-.4.2-.8.2-1.2,0-3.1,0-6.2,0-9.4,0-4.3,0-8.6,0-12.8,0-.4,0-1,.4-1.2.4.5.5,1.2.4,1.8,0,.3,0,.7,0,1,0,3,.2,6,.2,9,0,1.9,0,3.8,0,5.7,0,.3.1.5.3.8.2-.4.3-.9.3-1.3,0-1.8,0-3.6,0-5.4,0-3.5,0-6.9,0-10.4,0-.5,0-.9.2-1.4,1,0,1.2.2,1.2,1.4,0,1.4,0,2.9,0,4.4,0,1.8,0,3.5.2,5.3,0,.3.1.6.2,1h.4c.1-4.1-.1-8.1,0-12.1,1.8-.7,2.3-.2,2.3,1.9,0,2.2,0,4.4.1,6.5,0,.4.1.9.2,1.3h.4c.5-3.3,0-6.6.3-9.8,1.1-.1,1.4,0,1.4,1.1,0,.7-.1,1.4-.2,2,0,.6,0,1.3.6,1.5,1.2-1.3,0-3.2.8-4.5.9,0,1.1.3,1.1,1.5s.1,2.5.2,3.8c.1.3.2.6.4.9,0-.8.2-1.3.2-1.8,0-1.2.1-2.3.2-3.5,0-.7.2-1.2,1-1,0,.5.1,1,.2,1.4,0,1.7,0,3.4.2,5.1,0,.4,0,.9.7,1,0-1.5.1-3,.2-4.5,0-.7,0-1.5,0-2.2h0v-4.6ZM118.5,67.3h-.3c0-.4-.2-.9,0-1,.2-.2.5-.3.8-.4l.3.5-.7,1ZM198.8,65.6c-.3,0-.7-.1-.7-.3-.3-.9-.2-1.9.2-2.8.9.8.6,1.9.5,3ZM206.8,69.3v-.7c0,0,.1,0,.1,0v.7c0,0-.1,0-.1,0ZM208.1,69.3v-1c0,0,.3,0,.3,0v1s-.3,0-.3,0ZM214.5,52.6v4.7c-.3-1.6-.4-3.1-.3-4.7h.3ZM214.5,68.6h-.2s0-.7,0-.7h.2s0,.7,0,.7ZM214.5,64.1c-.8-1.1-.3-2.2-.2-3.4h.3s0,3.4,0,3.4Z"/>
  </g>
  <g>
    <path class="st5" d="M10.4,169.6h0c.7,0,1.3,0,1.7-.1.4,0,.7-.2.9-.3.2-.1.3-.2.4-.4,0-.1,0-.3,0-.4h0c0-.2,0-.4-.2-.6-.1-.1-.3-.2-.5-.3-.2,0-.6-.1-1-.2-.4,0-.9,0-1.5,0h0c-.3,0-.7,0-1.2,0-.5,0-.9,0-1.4-.2-.5,0-1-.2-1.4-.4-.5-.2-.9-.4-1.3-.7-.4-.3-.7-.7-.9-1.1-.2-.5-.3-1-.3-1.7h0v-.3c0-.6.1-1.1.3-1.7.2-.5.6-1,1.1-1.4.5-.4,1.2-.7,2-1,.9-.2,1.9-.4,3.2-.4h.7c.9,0,1.8,0,2.7.2.9.1,1.7.3,2.6.5h0v3.3c-1-.2-2-.4-2.9-.5-1-.1-1.9-.2-2.9-.2h0c-.7,0-1.3,0-1.7.1-.4,0-.7.2-.9.3-.2.1-.3.2-.4.4,0,.1,0,.2,0,.4h0c0,.2,0,.4.2.6.1.1.3.3.5.3.3,0,.6.1,1,.2.4,0,.9,0,1.5,0h0c.3,0,.7,0,1.1,0,.4,0,.9,0,1.4.2.5,0,1,.2,1.5.4.5.2.9.4,1.3.7.4.3.7.7.9,1.1.2.5.4,1,.4,1.7h0v.3c0,.6-.1,1.1-.3,1.6-.2.5-.6,1-1.1,1.4-.5.4-1.2.7-2,1-.8.2-1.9.3-3.2.3h-.7c-1.1,0-2.1,0-3.1-.2-1-.1-2-.3-3-.5h0v-3.4c1.1.2,2.2.4,3.4.6,1.2.1,2.3.2,3.3.2Z"/>
    <path class="st6" d="M22.1,166.2v-1c0-.9.1-1.8.3-2.6.2-.8.6-1.5,1.2-2.1.6-.6,1.3-1.1,2.3-1.4,1-.3,2.2-.5,3.7-.5h.7c1.5,0,2.7.2,3.7.5,1,.4,1.7.8,2.3,1.4.6.6,1,1.3,1.2,2.1.2.8.3,1.7.3,2.6h0v1c0,.9-.1,1.8-.3,2.6-.2.8-.6,1.5-1.2,2.1s-1.3,1.1-2.3,1.4c-1,.4-2.2.5-3.7.5h-.7c-1.5,0-2.7-.2-3.7-.5-1-.3-1.7-.8-2.3-1.4-.6-.6-1-1.3-1.2-2.1-.2-.8-.3-1.7-.3-2.6h0ZM25.8,165.6h0c0,.5,0,1,0,1.5,0,.5.2.9.5,1.3.3.4.7.6,1.3.9.6.2,1.4.3,2.4.3h0c1.1,0,1.9-.1,2.5-.3.6-.2,1-.5,1.3-.9.3-.4.4-.8.5-1.3,0-.5,0-1,0-1.5h0c0-.5,0-1,0-1.5,0-.5-.2-.9-.5-1.3-.3-.4-.7-.6-1.3-.9-.6-.2-1.4-.3-2.5-.3h0c-1.1,0-1.9.1-2.4.3-.6.2-1,.5-1.3.9-.3.4-.4.8-.5,1.3,0,.5,0,1,0,1.5Z"/>
    <path class="st4" d="M53.9,158.9h3.6v7.9c0,.8-.1,1.6-.3,2.3-.2.7-.6,1.4-1.1,1.9-.5.6-1.2,1-2.1,1.3-.9.3-2,.5-3.4.5h-.7c-1.3,0-2.5-.2-3.4-.5-.9-.3-1.6-.7-2.1-1.3s-.9-1.2-1.1-1.9c-.2-.7-.3-1.5-.3-2.3h0v-7.9h3.6v7.4c0,.4,0,.9,0,1.3,0,.4.2.7.4,1.1.2.3.6.6,1.1.7.5.2,1.2.3,2.1.3h0c.9,0,1.6,0,2.1-.3.5-.2.9-.4,1.1-.7.2-.3.4-.7.4-1.1,0-.4,0-.8,0-1.3h0v-7.4Z"/>
    <path class="st3" d="M66.5,158.9l7.1,8.7v-8.7h3.6v13.5h-3.6l-7.1-8.7v8.7h-3.6v-13.5h3.6Z"/>
    <path class="st14" d="M97.4,165.1v1c0,.9-.1,1.8-.4,2.6-.2.8-.7,1.5-1.3,2.1s-1.4,1.1-2.4,1.4c-1,.4-2.3.5-3.8.5h-.7c-1,0-2.1,0-3.1,0-1,0-2-.2-2.9-.3h0v-13.5c1-.1,1.9-.3,2.9-.3,1,0,2-.1,3.1-.1h.7c1.5,0,2.8.2,3.8.5,1,.4,1.8.8,2.4,1.4.6.6,1,1.3,1.3,2.1.2.8.4,1.7.4,2.6h0ZM88.8,169.6h0c1.2,0,2.1,0,2.8-.3.7-.2,1.1-.5,1.4-.8.3-.4.5-.8.5-1.3,0-.5,0-1,0-1.6h0c0-.6,0-1.1,0-1.6,0-.5-.2-.9-.5-1.2-.3-.3-.8-.6-1.4-.8-.7-.2-1.6-.3-2.8-.3h0c-.3,0-.7,0-1.2,0s-.9,0-1.3,0h0v7.8c.5,0,.9,0,1.3,0s.8,0,1.2,0ZM160.4,166.1"/>
    <path class="st13" d="M116.7,169.6h0c.7,0,1.3,0,1.7-.1.4,0,.7-.2.9-.3.2-.1.3-.2.4-.4,0-.1,0-.3,0-.4h0c0-.2,0-.4-.2-.6s-.3-.2-.6-.3c-.2,0-.6-.1-1-.2-.4,0-.9,0-1.5,0h0c-.3,0-.7,0-1.2,0-.5,0-.9,0-1.4-.2-.5,0-1-.2-1.4-.4-.5-.2-.9-.4-1.3-.7-.4-.3-.7-.7-.9-1.1-.2-.5-.3-1-.3-1.7h0v-.3c0-.6.1-1.1.3-1.7.2-.5.6-1,1.1-1.4.5-.4,1.2-.7,2-1,.9-.2,1.9-.4,3.2-.4h.7c.9,0,1.8,0,2.7.2.9.1,1.7.3,2.6.5h0v3.3c-1-.2-2-.4-2.9-.5-1-.1-1.9-.2-2.9-.2h0c-.7,0-1.3,0-1.7.1-.4,0-.7.2-.9.3-.2.1-.3.2-.4.4,0,.1,0,.2,0,.4h0c0,.2,0,.4.2.6.1.1.3.3.6.3.3,0,.6.1,1,.2.4,0,.9,0,1.5,0h0c.3,0,.7,0,1.2,0,.4,0,.9,0,1.4.2.5,0,1,.2,1.5.4.5.2.9.4,1.3.7.4.3.7.7.9,1.1.2.5.4,1,.4,1.7h0v.3c0,.6-.1,1.1-.3,1.6-.2.5-.6,1-1.1,1.4-.5.4-1.2.7-2,1-.8.2-1.9.3-3.2.3h-.7c-1.1,0-2.1,0-3.1-.2-1-.1-2-.3-3-.5h0v-3.4c1.1.2,2.2.4,3.4.6,1.2.1,2.3.2,3.3.2Z"/>
    <path class="st18" d="M136.6,172.4h-3.6v-10.3h-5.2v-3.2h14.2v3.2h-5.3v10.3Z"/>
    <path class="st17" d="M146.3,166.2v-1c0-.9.1-1.8.3-2.6.2-.8.6-1.5,1.2-2.1.6-.6,1.3-1.1,2.3-1.4,1-.3,2.2-.5,3.7-.5h.7c1.5,0,2.7.2,3.7.5,1,.4,1.7.8,2.3,1.4.6.6,1,1.3,1.2,2.1.2.8.3,1.7.3,2.6h0v1c0,.9-.1,1.8-.3,2.6-.2.8-.6,1.5-1.2,2.1-.6.6-1.3,1.1-2.3,1.4-1,.4-2.2.5-3.7.5h-.7c-1.5,0-2.7-.2-3.7-.5-1-.3-1.7-.8-2.3-1.4-.6-.6-1-1.3-1.2-2.1-.2-.8-.3-1.7-.3-2.6h0ZM149.9,165.6h0c0,.5,0,1,0,1.5,0,.5.2.9.5,1.3.3.4.7.6,1.2.9.6.2,1.4.3,2.5.3h0c1.1,0,1.9-.1,2.4-.3.6-.2,1-.5,1.3-.9.3-.4.4-.8.5-1.3,0-.5,0-1,0-1.5h0c0-.5,0-1,0-1.5,0-.5-.2-.9-.5-1.3-.3-.4-.7-.6-1.3-.9-.6-.2-1.4-.3-2.4-.3h0c-1.1,0-1.9.1-2.5.3-.6.2-1,.5-1.2.9-.3.4-.4.8-.5,1.3,0,.5,0,1,0,1.5Z"/>
    <path class="st16" d="M181.2,172.4h-3.5l-2.7-4.2c-.7,0-1.4,0-2.1,0s-1.3,0-2-.2h0v4.4h-3.6v-13.5c1.2-.1,2.4-.2,3.6-.3,1.3,0,2.5-.1,3.8-.1h.6c1.1,0,2.1.1,2.8.4.7.2,1.3.6,1.8,1,.4.4.8.9.9,1.4.2.5.3,1.1.3,1.7h0v.8c0,.8-.2,1.6-.5,2.3-.3.7-.9,1.2-1.8,1.6h0l2.5,4v.8ZM174.7,161.7h0c-.5,0-1,0-1.8,0-.7,0-1.4,0-2.1.1h0v2.9c.6,0,1.2.1,1.8.1s1,0,1.4,0h0c.8,0,1.4,0,1.9-.1.4,0,.8-.2,1-.3.2-.1.3-.3.4-.6,0-.2,0-.5,0-.8h0c0-.2,0-.3,0-.5,0-.2-.1-.3-.3-.5-.2-.1-.4-.2-.8-.3-.4,0-.9-.1-1.5-.1Z"/>
    <path class="st20" d="M195.7,169.6h-1.9l-3.8-5.3v8.1h-3.6v-13.5h3.6l4.7,6.9,4.7-6.9h3.6v13.5h-3.6v-8.1l-3.8,5.3Z"/>
    <path class="st7" d="M160.4,166.1"/>
    <path class="st19" d="M223,169.6h0c.7,0,1.3,0,1.7-.1.4,0,.7-.2.9-.3.2-.1.3-.2.4-.4,0-.1,0-.3,0-.4h0c0-.2,0-.4-.2-.6-.1-.1-.3-.2-.6-.3-.2,0-.6-.1-1-.2-.4,0-.9,0-1.5,0h0c-.3,0-.7,0-1.2,0-.5,0-.9,0-1.4-.2-.5,0-1-.2-1.4-.4-.5-.2-.9-.4-1.3-.7-.4-.3-.7-.7-.9-1.1-.2-.5-.3-1-.3-1.7h0v-.3c0-.6.1-1.1.3-1.7.2-.5.6-1,1.1-1.4.5-.4,1.2-.7,2-1,.9-.2,1.9-.4,3.2-.4h.7c.9,0,1.8,0,2.7.2.9.1,1.7.3,2.6.5h0v3.3c-1-.2-2-.4-2.9-.5-1-.1-1.9-.2-2.9-.2h0c-.7,0-1.3,0-1.7.1-.4,0-.7.2-.9.3-.2.1-.3.2-.4.4,0,.1,0,.2,0,.4h0c0,.2,0,.4.2.6.1.1.3.3.6.3.3,0,.6.1,1,.2.4,0,.9,0,1.4,0h0c.3,0,.7,0,1.2,0,.4,0,.9,0,1.4.2.5,0,1,.2,1.5.4.5.2.9.4,1.3.7.4.3.7.7.9,1.1.2.5.4,1,.4,1.7h0v.3c0,.6-.1,1.1-.3,1.6-.2.5-.6,1-1.1,1.4-.5.4-1.2.7-2,1-.8.2-1.9.3-3.2.3h-.7c-1.1,0-2.1,0-3.1-.2-1-.1-2-.3-3-.5h0v-3.4c1.1.2,2.2.4,3.4.6,1.2.1,2.3.2,3.3.2Z"/>
    <path class="st22" d="M242.8,172.4h-3.6v-10.3h-5.2v-3.2h14.2v3.2h-5.3v10.3Z"/>
    <path class="st21" d="M263.7,158.9h3.6v7.9c0,.8-.1,1.6-.3,2.3-.2.7-.6,1.4-1.1,1.9-.5.6-1.2,1-2.1,1.3-.9.3-2,.5-3.3.5h-.7c-1.3,0-2.5-.2-3.3-.5-.9-.3-1.6-.7-2.1-1.3-.5-.6-.9-1.2-1.1-1.9-.2-.7-.3-1.5-.3-2.3h0v-7.9h3.6v7.4c0,.4,0,.9,0,1.3,0,.4.2.7.4,1.1.2.3.6.6,1.1.7.5.2,1.2.3,2.1.3h0c.9,0,1.6,0,2.1-.3.5-.2.9-.4,1.1-.7.2-.3.3-.7.4-1.1,0-.4,0-.8,0-1.3h0v-7.4Z"/>
    <path class="st15" d="M287.3,165.1v1c0,.9-.1,1.8-.4,2.6-.2.8-.7,1.5-1.3,2.1-.6.6-1.4,1.1-2.4,1.4-1,.4-2.3.5-3.9.5h-.7c-1,0-2.1,0-3.1,0-1,0-2-.2-3-.3h0v-13.5c1-.1,1.9-.3,3-.3,1,0,2-.1,3.1-.1h.7c1.5,0,2.8.2,3.9.5,1,.4,1.8.8,2.4,1.4.6.6,1,1.3,1.3,2.1.2.8.4,1.7.4,2.6h0ZM278.8,169.6h0c1.2,0,2.1,0,2.8-.3.7-.2,1.1-.5,1.4-.8.3-.4.5-.8.5-1.3,0-.5,0-1,0-1.6h0c0-.6,0-1.1,0-1.6,0-.5-.2-.9-.5-1.2-.3-.3-.8-.6-1.4-.8-.7-.2-1.6-.3-2.8-.3h0c-.3,0-.7,0-1.2,0s-.9,0-1.3,0h0v7.8c.5,0,.9,0,1.3,0s.8,0,1.2,0Z"/>
    <path class="st10" d="M292.4,158.9h3.6v13.5h-3.6v-13.5Z"/>
    <path class="st12" d="M301.2,166.2v-1c0-.9.1-1.8.4-2.6.2-.8.6-1.5,1.2-2.1.6-.6,1.3-1.1,2.3-1.4,1-.3,2.2-.5,3.7-.5h.7c1.5,0,2.7.2,3.7.5,1,.4,1.7.8,2.3,1.4.6.6,1,1.3,1.2,2.1.2.8.3,1.7.3,2.6h0v1c0,.9-.1,1.8-.3,2.6-.2.8-.6,1.5-1.2,2.1-.6.6-1.3,1.1-2.3,1.4-1,.4-2.2.5-3.7.5h-.7c-1.5,0-2.7-.2-3.7-.5-1-.3-1.7-.8-2.3-1.4s-1-1.3-1.2-2.1c-.2-.8-.4-1.7-.4-2.6h0ZM304.9,165.6h0c0,.5,0,1,0,1.5,0,.5.2.9.5,1.3.3.4.7.6,1.2.9.6.2,1.4.3,2.4.3h0c1.1,0,1.9-.1,2.5-.3.6-.2,1-.5,1.2-.9.3-.4.4-.8.5-1.3,0-.5,0-1,0-1.5h0c0-.5,0-1,0-1.5,0-.5-.2-.9-.5-1.3-.3-.4-.7-.6-1.2-.9-.6-.2-1.4-.3-2.5-.3h0c-1.1,0-1.9.1-2.4.3-.6.2-1,.5-1.2.9-.3.4-.4.8-.5,1.3,0,.5,0,1,0,1.5Z"/>
  </g>
  <path class="st11" d="M180.6,196.4h-52.2c-.4,0-.6-.4-.6-1s.3-1,.6-1h52.2c.4,0,.6.4.6,1s-.3,1-.6,1Z"/>
</svg>