<svg width="108" height="142" viewBox="0 0 108 142" fill="none" xmlns="http://www.w3.org/2000/svg">
<path d="M14.1562 0.6875C10.4266 0.6875 6.84979 2.16908 4.21256 4.80631C1.57533 7.44354 0.09375 11.0204 0.09375 14.75V89.75C0.09375 90.9932 0.587611 92.1855 1.46669 93.0646C2.34576 93.9436 3.53805 94.4375 4.78125 94.4375C6.02445 94.4375 7.21674 93.9436 8.09581 93.0646C8.97489 92.1855 9.46875 90.9932 9.46875 89.75V14.75C9.46875 13.5068 9.96261 12.3145 10.8417 11.4354C11.7208 10.5564 12.913 10.0625 14.1562 10.0625H28.2188C29.462 10.0625 30.6542 10.5564 31.5333 11.4354C32.4124 12.3145 32.9062 13.5068 32.9062 14.75V127.25C32.9062 128.493 32.4124 129.685 31.5333 130.565C30.6542 131.444 29.462 131.938 28.2188 131.938H14.1562C12.913 131.938 11.7208 131.444 10.8417 130.565C9.96261 129.685 9.46875 128.493 9.46875 127.25V113.188C9.46875 111.944 8.97489 110.752 8.09581 109.873C7.21674 108.994 6.02445 108.5 4.78125 108.5C3.53805 108.5 2.34576 108.994 1.46669 109.873C0.587611 110.752 0.09375 111.944 0.09375 113.188V127.25C0.09375 130.98 1.57533 134.556 4.21256 137.194C6.84979 139.831 10.4266 141.312 14.1562 141.312H28.2188C31.9484 141.312 35.5252 139.831 38.1624 137.194C40.7997 134.556 42.2812 130.98 42.2812 127.25V14.75C42.2812 11.0204 40.7997 7.44354 38.1624 4.80631C35.5252 2.16908 31.9484 0.6875 28.2188 0.6875H14.1562ZM79.7812 0.6875C76.0516 0.6875 72.4748 2.16908 69.8376 4.80631C67.2003 7.44354 65.7188 11.0204 65.7188 14.75V127.25C65.7188 130.98 67.2003 134.556 69.8376 137.194C72.4748 139.831 76.0516 141.312 79.7812 141.312H93.8438C97.5734 141.312 101.15 139.831 103.787 137.194C106.425 134.556 107.906 130.98 107.906 127.25V56.9375C107.906 55.6943 107.412 54.502 106.533 53.6229C105.654 52.7439 104.462 52.25 103.219 52.25C101.976 52.25 100.783 52.7439 99.9042 53.6229C99.0251 54.502 98.5312 55.6943 98.5312 56.9375V127.25C98.5312 128.493 98.0374 129.685 97.1583 130.565C96.2792 131.444 95.087 131.938 93.8438 131.938H79.7812C78.538 131.938 77.3458 131.444 76.4667 130.565C75.5876 129.685 75.0938 128.493 75.0938 127.25V14.75C75.0938 13.5068 75.5876 12.3145 76.4667 11.4354C77.3458 10.5564 78.538 10.0625 79.7812 10.0625H93.8438C95.087 10.0625 96.2792 10.5564 97.1583 11.4354C98.0374 12.3145 98.5312 13.5068 98.5312 14.75V33.5C98.5312 34.7432 99.0251 35.9355 99.9042 36.8146C100.783 37.6936 101.976 38.1875 103.219 38.1875C104.462 38.1875 105.654 37.6936 106.533 36.8146C107.412 35.9355 107.906 34.7432 107.906 33.5V14.75C107.906 11.0204 106.425 7.44354 103.787 4.80631C101.15 2.16908 97.5734 0.6875 93.8438 0.6875H79.7812Z" fill="white"/>
</svg>
