<svg width="132" height="152" viewBox="0 0 132 152" fill="none" xmlns="http://www.w3.org/2000/svg">
<path d="M121.771 58.4604L31.9959 3.12142C25.5009 -0.877185 17.6483 -1.04344 10.9897 2.67671C4.33105 6.39625 0.355888 13.1712 0.355888 20.7983V130.972C0.355888 142.505 9.64808 151.937 21.0689 151.999L21.1618 152C24.7308 151.999 28.4501 150.881 31.9238 148.761C34.7183 147.056 35.6015 143.409 33.8965 140.615C32.1916 137.82 28.5436 136.937 25.75 138.642C24.1252 139.633 22.5384 140.146 21.1327 140.145C16.8235 140.122 12.2098 136.43 12.2098 130.972V20.7985C12.2098 17.5267 13.9151 14.6212 16.771 13.0255C19.6272 11.4298 22.9953 11.501 25.7779 13.2143L115.553 68.5533C118.251 70.2146 119.796 72.9847 119.789 76.1536C119.782 79.3221 118.227 82.086 115.514 83.7417L50.6061 123.484C47.8143 125.193 46.9368 128.842 48.6462 131.634C50.3553 134.425 54.0042 135.303 56.796 133.594L121.696 93.8562C127.91 90.0654 131.629 83.457 131.644 76.1773C131.658 68.8985 127.966 62.2747 121.771 58.4604Z" fill="white"/>
</svg>
