<svg width="108" height="142" fill="none" xmlns="http://www.w3.org/2000/svg"><path d="M14.156.688A14.062 14.062 0 0 0 .094 14.75v75a4.688 4.688 0 0 0 9.375 0v-75a4.688 4.688 0 0 1 4.687-4.688H28.22a4.688 4.688 0 0 1 4.687 4.688v112.5a4.69 4.69 0 0 1-4.687 4.688H14.156a4.688 4.688 0 0 1-4.687-4.688v-14.062a4.687 4.687 0 1 0-9.375 0v14.062a14.064 14.064 0 0 0 14.062 14.062H28.22a14.062 14.062 0 0 0 14.06-14.062V14.75A14.062 14.062 0 0 0 28.22.687H14.156Zm65.625 0A14.062 14.062 0 0 0 65.72 14.75v112.5a14.064 14.064 0 0 0 14.062 14.062h14.063a14.061 14.061 0 0 0 14.062-14.062V56.937a4.688 4.688 0 0 0-9.375 0v70.313a4.69 4.69 0 0 1-4.687 4.688H79.78a4.688 4.688 0 0 1-4.687-4.688V14.75a4.687 4.687 0 0 1 4.687-4.688h14.063a4.688 4.688 0 0 1 4.687 4.688V33.5a4.688 4.688 0 0 0 9.375 0V14.75A14.06 14.06 0 0 0 93.844.687H79.78Z" fill="#fff"/></svg>