<svg width="132" height="152" fill="none" xmlns="http://www.w3.org/2000/svg"><path d="M121.771 58.46 31.996 3.121C25.5-.877 17.648-1.043 10.99 2.677 4.33 6.397.356 13.17.356 20.798v110.174c0 11.533 9.292 20.965 20.713 21.027l.093.001c3.569-.001 7.288-1.119 10.762-3.239a5.926 5.926 0 1 0-6.174-10.119c-1.625.991-3.212 1.504-4.617 1.503-4.31-.023-8.923-3.715-8.923-9.173V20.798c0-3.271 1.705-6.177 4.561-7.772 2.856-1.596 6.224-1.525 9.007.188l89.775 55.34c2.698 1.66 4.243 4.43 4.236 7.6-.007 3.168-1.562 5.932-4.275 7.588l-64.908 39.742a5.927 5.927 0 1 0 6.19 10.11l64.9-39.738c6.214-3.79 9.933-10.399 9.948-17.679.014-7.279-3.678-13.902-9.873-17.717Z" fill="#fff"/></svg>